<?xml version="1.0" encoding="UTF-8"?>
<svg xmlns="http://www.w3.org/2000/svg" width="256" height="256" viewBox="0 0 128 128" role="img" aria-labelledby="title desc">
  <title id="title">Modificado</title>
  <desc id="desc">Emblema circular laranja com lápis branco inclinado. Fundo transparente fora do círculo.</desc>
  <defs>
    <linearGradient id="badge-gradient" gradientUnits="userSpaceOnUse" x1="24" y1="12" x2="104" y2="116">
      <stop offset="0" stop-color="#FFA500"/>
      <stop offset="0.52" stop-color="#F07B00"/>
      <stop offset="1" stop-color="#E45200"/>
    </linearGradient>
  </defs>
  <circle cx="64" cy="64" r="60.5" fill="#ffffff"/>
  <circle cx="64" cy="64" r="56" fill="url(#badge-gradient)"/>
  <g fill="#ffffff" transform="rotate(45 64 64)">
    <path d="M52.8 34V28C52.8 23.3 56.6 19.5 61.3 19.5H70.3C75 19.5 78.8 23.3 78.8 28V34Q78.8 34.7 78.1 34.7H53.5Q52.8 34.7 52.8 34Z"/>
    <path fill-rule="evenodd" d="M54.1 38.5H77.5Q78.8 38.5 78.8 39.8V89Q78.8 90.1 78.2 91.2L68.3 109Q65.8 112.9 63.3 109L53.4 91.2Q52.8 90.1 52.8 89V39.8Q52.8 38.5 54.1 38.5Z
      M61 46.5Q61 45.8 61.8 45.8H69.8Q70.6 45.8 70.6 46.5V84.7Q70.6 85.4 69.8 85.4H61.8Q61 85.4 61 84.7Z
      M59.6 92.2H72L67 100.6Q65.8 102.5 64.6 100.6Z"/>
  </g>
</svg>
