<svg xmlns="http://www.w3.org/2000/svg" width="64" height="64" viewBox="0 0 64 64" fill="none">

  <defs>
    <linearGradient id="blue" x1="10" y1="8" x2="54" y2="58" gradientUnits="userSpaceOnUse">
      <stop offset="0" stop-color="#7DC4FF"/>
      <stop offset="0.46" stop-color="#3584E4"/>
      <stop offset="1" stop-color="#2855C5"/>
    </linearGradient>
    <linearGradient id="violet" x1="12" y1="10" x2="55" y2="58" gradientUnits="userSpaceOnUse">
      <stop offset="0" stop-color="#B39CFF"/>
      <stop offset="0.52" stop-color="#7D5BFF"/>
      <stop offset="1" stop-color="#5A35C8"/>
    </linearGradient>
    <linearGradient id="cyan" x1="10" y1="8" x2="56" y2="57" gradientUnits="userSpaceOnUse">
      <stop offset="0" stop-color="#67E8FF"/>
      <stop offset="0.52" stop-color="#1FC6F3"/>
      <stop offset="1" stop-color="#1688D8"/>
    </linearGradient>
    <linearGradient id="steel" x1="10" y1="8" x2="54" y2="58" gradientUnits="userSpaceOnUse">
      <stop offset="0" stop-color="#FFFFFF"/>
      <stop offset="0.55" stop-color="#EAF0FB"/>
      <stop offset="1" stop-color="#C7D1E6"/>
    </linearGradient>
    <linearGradient id="glass" x1="12" y1="10" x2="51" y2="55" gradientUnits="userSpaceOnUse">
      <stop offset="0" stop-color="#FFFFFF" stop-opacity="0.88"/>
      <stop offset="0.42" stop-color="#FFFFFF" stop-opacity="0.42"/>
      <stop offset="1" stop-color="#FFFFFF" stop-opacity="0.08"/>
    </linearGradient>
    <radialGradient id="shine" cx="0.28" cy="0.18" r="0.76">
      <stop offset="0" stop-color="#FFFFFF" stop-opacity="0.95"/>
      <stop offset="0.42" stop-color="#FFFFFF" stop-opacity="0.32"/>
      <stop offset="1" stop-color="#FFFFFF" stop-opacity="0"/>
    </radialGradient>
    <filter id="shadow" x="-40%" y="-40%" width="190%" height="210%" color-interpolation-filters="sRGB">
      <feDropShadow dx="0" dy="2.2" stdDeviation="2.2" flood-color="#17213B" flood-opacity="0.24"/>
    </filter>
    <filter id="softShadow" x="-35%" y="-35%" width="180%" height="195%" color-interpolation-filters="sRGB">
      <feDropShadow dx="0" dy="1.2" stdDeviation="1.3" flood-color="#17213B" flood-opacity="0.18"/>
    </filter>
  </defs>


  <g>
    <circle cx="29" cy="31" r="21" fill="url(#blue)"/>
    <circle cx="29" cy="31" r="14" fill="#F8FAFF"/>
    <circle cx="29" cy="31" r="4.8" fill="#D4DDED" stroke="#B6C2D8"/>
    <path d="M29 10a21 21 0 0 1 20 15H29V10Z" fill="#C6D8FF" fill-opacity="0.78"/>
    <path d="M11 37a21 21 0 0 0 27 13" stroke="url(#cyan)" stroke-width="5.5" stroke-linecap="round"/>
  </g>
  <g>
    <circle cx="47" cy="45" r="12" fill="url(#violet)"/>
    <path d="M47 39v12M41 45h12" stroke="#fff" stroke-width="3.3" stroke-linecap="round"/>
  </g>
  <path d="m51 9 1.7 4.3L57 15l-4.3 1.7L51 21l-1.7-4.3L45 15l4.3-1.7L51 9Z" fill="#fff" opacity="0.92"/>

</svg>
